<svg width="48" height="48" viewBox="0 0 48 48" fill="none" xmlns="http://www.w3.org/2000/svg">
<path d="M40 6H8C7.46957 6 6.96086 6.21071 6.58579 6.58579C6.21071 6.96086 6 7.46957 6 8V40C6 40.5304 6.21071 41.0391 6.58579 41.4142C6.96086 41.7893 7.46957 42 8 42H25.23V28.08H20.554V22.63H25.23V18.63C25.23 13.98 28.07 11.446 32.23 11.446C33.628 11.442 35.028 11.514 36.42 11.66V16.5H33.55C31.294 16.5 30.854 17.576 30.854 19.15V22.62H36.248L35.548 28.07H30.852V42H40C40.5304 42 41.0391 41.7893 41.4142 41.4142C41.7893 41.0391 42 40.5304 42 40V8C42 7.46957 41.7893 6.96086 41.4142 6.58579C41.0391 6.21071 40.5304 6 40 6Z" fill="#FAFBFD"/>
</svg>
