<svg width="48" height="48" viewBox="0 0 48 48" fill="none" xmlns="http://www.w3.org/2000/svg">
<path fill-rule="evenodd" clip-rule="evenodd" d="M24 10.803C19.431 3.61651 11.247 3.88201 7.062 7.85551C2.7705 11.934 2.622 20.0865 6.9105 28.2405C9.8385 34.1925 17.334 40.1655 23.598 44.133C23.844 44.289 24.156 44.289 24.402 44.133C30.666 40.1655 38.1615 34.1925 41.0895 28.2405C45.378 20.0865 45.2295 11.934 40.938 7.85701C36.753 3.88201 28.569 3.61651 24 10.8045V10.803V10.803ZM9.375 24H13.875C14.0745 24 14.265 23.9205 14.406 23.781L16.6005 21.585L19.179 28.029C19.2945 28.3185 19.578 28.506 19.8885 28.5C20.2005 28.494 20.4765 28.296 20.5815 28.002L23.5455 19.7025L25.9035 27.9555C25.989 28.254 26.247 28.4685 26.556 28.497C26.8635 28.5255 27.1575 28.362 27.2955 28.086L30.5805 21.516L32.844 23.781C32.985 23.9205 33.1755 24 33.375 24H38.625C39.039 24 39.375 23.664 39.375 23.25C39.375 22.836 39.039 22.5 38.625 22.5H33.6855L30.906 19.719C30.735 19.5495 30.4935 19.4715 30.255 19.509C30.0165 19.548 29.8125 19.6995 29.7045 19.914L26.817 25.6905L24.3465 17.0445C24.2565 16.731 23.9745 16.5105 23.649 16.5C23.3235 16.4895 23.028 16.6905 22.9185 16.998L19.836 25.632L17.571 19.971C17.478 19.737 17.2725 19.566 17.0265 19.515C16.779 19.464 16.5225 19.542 16.344 19.719L13.5645 22.5H9.375C8.961 22.5 8.625 22.836 8.625 23.25C8.625 23.664 8.961 24 9.375 24V24Z" fill="#4F83E9"/>
</svg>
