<svg width="48" height="48" viewBox="0 0 48 48" fill="none" xmlns="http://www.w3.org/2000/svg">
<g clip-path="url(#clip0_18_10)">
<path d="M27.6562 28.6031C28.2375 28.6031 28.7906 28.3594 29.1937 27.9375C29.5875 27.5156 29.7937 26.9438 29.775 26.3813L29.025 11.5125C28.9687 10.3875 28.0312 9.50626 26.9156 9.50626H21.1125C19.9875 9.50626 19.0594 10.3969 19.0031 11.5219L18.2531 26.3813C18.225 26.9531 18.4312 27.5156 18.8344 27.9375C19.2375 28.3594 19.7906 28.6031 20.3719 28.6031H27.6562ZM43.35 45.0844V47.3531C43.35 47.7094 43.0687 48 42.7031 48H5.29687C4.93124 48 4.64999 47.7094 4.64999 47.3531V45.0844C4.64999 44.8969 4.73437 44.7094 4.88437 44.5969L7.58437 42.3281C7.70624 42.2344 7.85624 42.1688 8.00624 42.1688H20.4562V36.8344H27.5531V42.1688H39.9937C40.1437 42.1688 40.2844 42.225 40.4062 42.3281L43.1156 44.5969C43.2656 44.7188 43.35 44.8969 43.35 45.0844Z" fill="#4F83E9"/>
<path d="M8.22188 12.4313C8.46563 12.375 8.70938 12.3563 8.9625 12.3563H11.8031C12.0656 12.3563 12.3188 12.3844 12.5719 12.4406L12.5906 7.73438C36.3844 7.79063 35.3812 7.78125 35.4656 7.79062V12.45C35.7094 12.3938 35.9531 12.3656 36.2063 12.3656H39.0469C39.3 12.3656 39.5438 12.3937 39.7875 12.4406V7.79062C39.7875 5.38125 37.8281 3.43125 35.4281 3.43125H27.5625V1.75313C27.5625 0.796875 26.775 0 25.8094 0H22.2094C21.2438 0 20.4563 0.796875 20.4563 1.75313V3.42188H12.5813C10.1719 3.42188 8.22188 5.38125 8.22188 7.78125V12.4313ZM14.3719 23.4844L13.7344 15.8625C13.6406 14.8687 12.7875 14.0812 11.7938 14.0812H8.9625C7.95938 14.0812 7.11563 14.8687 7.02188 15.8625L6.38438 23.4844C6.29063 24.6562 7.22813 25.5844 8.31563 25.5844H12.45C13.575 25.5844 14.4656 24.6094 14.3719 23.4844ZM36.2063 14.0812C35.2031 14.0812 34.3594 14.8687 34.2656 15.8625L33.6281 23.4844C33.5344 24.6094 34.425 25.5844 35.5594 25.5844H39.6938C40.8281 25.5844 41.7188 24.6094 41.625 23.4844L40.9875 15.8625C40.8938 14.8687 40.05 14.0812 39.0469 14.0812H36.2063ZM15.9563 35.1094H32.0531C33.2344 35.1094 34.1906 34.1531 34.1906 32.9719C34.1906 31.8 33.2344 30.8438 32.0531 30.8438H15.9563C14.775 30.8438 13.8188 31.8 13.8188 32.9719C13.8188 34.1531 14.775 35.1094 15.9563 35.1094Z" fill="#4F83E9"/>
</g>
<defs>
<clipPath id="clip0_18_10">
<rect width="48" height="48" fill="white"/>
</clipPath>
</defs>
</svg>
