<svg width="38" height="38" viewBox="0 0 38 38" fill="none" xmlns="http://www.w3.org/2000/svg">
<path d="M36.894 11.6099C36.8738 10.0952 36.5903 8.59547 36.056 7.17791C35.5927 5.98222 34.8851 4.89631 33.9783 3.98958C33.0716 3.08284 31.9857 2.37522 30.79 1.91191C29.3907 1.38663 27.9124 1.1026 26.418 1.07191C24.494 0.985914 23.884 0.961914 19 0.961914C14.116 0.961914 13.49 0.961914 11.58 1.07191C10.0863 1.10282 8.6087 1.38685 7.21 1.91191C6.01412 2.37489 4.92805 3.0824 4.02127 3.98918C3.11449 4.89596 2.40698 5.98203 1.944 7.17791C1.41767 8.57618 1.13425 10.0541 1.106 11.5479C1.02 13.4739 0.994003 14.0839 0.994003 18.9679C0.994003 23.8519 0.994003 24.4759 1.106 26.3879C1.136 27.8839 1.418 29.3599 1.944 30.7619C2.40776 31.9574 3.1158 33.0431 4.02288 33.9495C4.92996 34.8559 6.01613 35.5631 7.212 36.0259C8.60687 36.5723 10.0847 36.8767 11.582 36.9259C13.508 37.0119 14.118 37.0379 19.002 37.0379C23.886 37.0379 24.512 37.0379 26.422 36.9259C27.9163 36.8965 29.3947 36.6131 30.794 36.0879C31.9894 35.6241 33.075 34.9163 33.9817 34.0096C34.8884 33.1029 35.5962 32.0173 36.06 30.8219C36.586 29.4219 36.868 27.9459 36.898 26.4479C36.984 24.5239 37.01 23.9139 37.01 19.0279C37.006 14.1439 37.006 13.5239 36.894 11.6099ZM18.988 28.2039C13.88 28.2039 9.742 24.0659 9.742 18.9579C9.742 13.8499 13.88 9.71191 18.988 9.71191C21.4402 9.71191 23.792 10.686 25.5259 12.42C27.2599 14.154 28.234 16.5057 28.234 18.9579C28.234 21.4101 27.2599 23.7619 25.5259 25.4958C23.792 27.2298 21.4402 28.2039 18.988 28.2039ZM28.602 11.5259C28.3188 11.5262 28.0383 11.4706 27.7766 11.3623C27.5149 11.2541 27.2772 11.0953 27.0769 10.895C26.8766 10.6948 26.7178 10.457 26.6096 10.1953C26.5013 9.93359 26.4457 9.65312 26.446 9.36991C26.446 9.08692 26.5017 8.80669 26.61 8.54523C26.7183 8.28378 26.8771 8.04621 27.0772 7.8461C27.2773 7.64599 27.5149 7.48725 27.7763 7.37895C28.0378 7.27066 28.318 7.21491 28.601 7.21491C28.884 7.21491 29.1642 7.27066 29.4257 7.37895C29.6871 7.48725 29.9247 7.64599 30.1248 7.8461C30.3249 8.04621 30.4837 8.28378 30.592 8.54523C30.7003 8.80669 30.756 9.08692 30.756 9.36991C30.756 10.5619 29.792 11.5259 28.602 11.5259Z" fill="#FAFBFD"/>
</svg>
