<svg width="36" height="36" viewBox="0 0 36 36" fill="none" xmlns="http://www.w3.org/2000/svg">
<path d="M34 0H2C1.46957 0 0.960859 0.210714 0.585786 0.585786C0.210714 0.960859 0 1.46957 0 2V34C0 34.5304 0.210714 35.0391 0.585786 35.4142C0.960859 35.7893 1.46957 36 2 36H19.23V22.08H14.554V16.63H19.23V12.63C19.23 7.98 22.07 5.446 26.23 5.446C27.628 5.442 29.028 5.514 30.42 5.66V10.5H27.55C25.294 10.5 24.854 11.576 24.854 13.15V16.62H30.248L29.548 22.07H24.852V36H34C34.5304 36 35.0391 35.7893 35.4142 35.4142C35.7893 35.0391 36 34.5304 36 34V2C36 1.46957 35.7893 0.960859 35.4142 0.585786C35.0391 0.210714 34.5304 0 34 0Z" fill="#FAFBFD"/>
</svg>
