<svg width="47" height="38" viewBox="0 0 47 38" fill="none" xmlns="http://www.w3.org/2000/svg">
<path d="M46.286 4.87415C44.616 5.61415 42.822 6.11415 40.936 6.34015C42.882 5.17574 44.3379 3.34309 45.032 1.18415C43.2037 2.27013 41.2027 3.03454 39.116 3.44415C37.7128 1.94588 35.8541 0.952806 33.8286 0.619102C31.8032 0.285398 29.7242 0.629737 27.9145 1.59866C26.1047 2.56758 24.6655 4.10688 23.8203 5.97756C22.9751 7.84825 22.7711 9.94565 23.24 11.9442C19.5354 11.7581 15.9112 10.7953 12.6028 9.11796C9.29443 7.44068 6.37568 5.08648 4.03599 2.20815C3.23599 3.58815 2.77599 5.18815 2.77599 6.89215C2.7751 8.42614 3.15286 9.93664 3.87575 11.2896C4.59864 12.6426 5.64432 13.7962 6.91999 14.6482C5.44055 14.6011 3.99374 14.2013 2.69999 13.4822V13.6022C2.69984 15.7536 3.44406 17.8389 4.80636 19.5041C6.16866 21.1694 8.06514 22.312 10.174 22.7382C8.80156 23.1096 7.36267 23.1643 5.96599 22.8982C6.56099 24.7494 7.71998 26.3682 9.28073 27.528C10.8415 28.6878 12.7258 29.3305 14.67 29.3662C11.3697 31.957 7.29377 33.3623 3.09799 33.3562C2.35475 33.3564 1.61215 33.313 0.873993 33.2262C5.13295 35.9645 10.0907 37.4178 15.154 37.4122C32.294 37.4122 41.664 23.2162 41.664 10.9042C41.664 10.5042 41.654 10.1002 41.636 9.70015C43.4586 8.3821 45.0318 6.74995 46.282 4.88015L46.286 4.87415Z" fill="#FAFBFD"/>
</svg>
