<svg width="48" height="48" viewBox="0 0 48 48" fill="none" xmlns="http://www.w3.org/2000/svg">
<g clip-path="url(#clip0_18_57)">
<path d="M24 13.8225C27.81 13.8225 30.9075 10.725 30.9075 6.915C30.9075 3.0975 27.81 0 24 0C20.19 0 17.0925 3.0975 17.0925 6.9075C17.0925 10.7175 20.19 13.8225 24 13.8225ZM11.37 31.02H18.1275C22.5525 30.81 23.3325 28.0575 23.4075 27.735C23.46 27.4575 23.7 27.2625 23.9925 27.2625C24.2775 27.2625 24.5175 27.4575 24.5775 27.7425C24.585 27.7725 25.2525 30.8025 29.895 31.02H36.615C37.44 31.02 38.085 30.375 38.085 29.55V24.285C38.2125 18.45 28.98 17.1525 25.005 16.8675L24.7875 16.8525L27.0525 24.465L33.36 26.325C33.675 26.4225 33.855 26.7525 33.765 27.0675C33.69 27.315 33.45 27.495 33.195 27.495C33.135 27.495 33.075 27.4875 33.0225 27.4725L26.4 25.515C26.2125 25.4625 26.0625 25.3125 26.0025 25.1175L23.955 18.255L20.895 25.2675C20.8275 25.4175 20.7 25.5375 20.5425 25.5975L14.955 27.4725C14.91 27.4875 14.85 27.5025 14.775 27.5025C14.52 27.5025 14.295 27.3375 14.2125 27.0975C14.16 26.9475 14.1675 26.7825 14.2425 26.64C14.3175 26.4975 14.4375 26.3925 14.5875 26.3475L19.9125 24.5625L23.2725 16.86L23.025 16.875C19.035 17.1525 9.75753 18.435 9.88503 24.27V29.565C9.90753 30.36 10.5675 31.02 11.37 31.02ZM39.63 39.8475C38.76 39.135 37.695 38.745 36.495 38.7L36.405 38.6925C36.03 38.6925 35.6475 38.73 35.2575 38.8125L28.68 40.6275L29.1375 40.785C31.215 41.4975 32.4825 43.0725 32.4525 44.895C32.43 45.99 31.95 46.9725 31.065 47.7375L30.75 48H36.3375C39.09 48 41.325 45.915 41.325 43.35C41.3325 42.0075 40.71 40.7325 39.63 39.8475Z" fill="#2465E3"/>
<path d="M28.23 41.7675C27.57 41.61 26.85 41.4675 26.07 41.34L25.6725 41.2725H25.665C25.6275 41.265 25.5975 41.2575 25.545 41.2425L12.2475 38.6775C12.045 38.64 11.85 38.61 11.6175 38.595C11.58 38.595 11.535 38.5875 11.49 38.58L11.475 38.5725H11.415C11.28 38.565 11.145 38.5575 11.0175 38.5575C9.88499 38.5575 8.88 38.8875 8.13 39.5175C7.185 40.305 6.6825 41.4825 6.6825 42.9375C6.6825 45.735 8.955 48.0075 11.7525 48.0075H26.97C26.9925 48.0075 27.4725 47.97 28.1175 47.8425C30 47.4675 31.23 46.3125 31.2675 44.88C31.2825 43.4325 30.0975 42.2175 28.23 41.7675ZM29.88 32.2125C26.5725 32.0625 24.9225 30.6525 24.12 29.505L24 29.325L23.88 29.505C23.085 30.6525 21.45 32.0625 18.165 32.2125H15.7425V34.8975C15.7425 35.0625 15.6675 35.2275 15.54 35.3475L12.975 37.59L25.755 40.7325C25.8 40.74 25.845 40.7475 25.89 40.755L25.935 40.77L35.0625 37.6275L32.46 35.3475C32.3325 35.235 32.2575 35.0625 32.2575 34.8975V32.2125H29.88Z" fill="#2465E3"/>
</g>
<defs>
<clipPath id="clip0_18_57">
<rect width="48" height="48" fill="white"/>
</clipPath>
</defs>
</svg>
